# xmcd
#
# Track frame offsets: 
#        150
#        17631
#        43582
#        59934
#        86761
#        114361
#        136862
#        149922
#        165260
#        192476
#
# Disc length: 2840 seconds
#
# Revision: 0
# Processed by: cddbd v1.5.2PL0 Copyright (c) Steve Scherf et al.
# Submitted via: ExactAudioCopy v0.99pb5
#
DISCID=900b160a
DTITLE=Bobby Whitlock and CocCo Carmel - METAMORPHOSIS
DYEAR=2009
DGENRE=Blues
TTITLE0=01 - You Don't Know
TTITLE1=02 - Dice of God
TTITLE2=03 - True Love
TTITLE3=04 - Best Days of Our Lives
TTITLE4=05 - My Life
TTITLE5=06 - He's Gone
TTITLE6=07 - One Voice
TTITLE7=08 - Beautiful
TTITLE8=09 - Layla
TTITLE9=10 - Thorn Tree In the Garden
EXTD=
EXTT0=
EXTT1=
EXTT2=
EXTT3=
EXTT4=
EXTT5=
EXTT6=
EXTT7=
EXTT8=
EXTT9=
PLAYORDER=
